<svg width="58" height="53" viewBox="0 0 58 53" fill="none" xmlns="http://www.w3.org/2000/svg">
<path d="M56.7734 17.8203C56.7734 18.0078 56.7031 18.1641 56.5625 18.2891C56.4375 18.4141 56.2812 18.5234 56.0938 18.6172C55.9062 18.6953 55.7109 18.75 55.5078 18.7812C55.3203 18.8125 55.1641 18.8281 55.0391 18.8281C54.8516 18.8281 54.6719 18.8125 54.5 18.7812C54.3281 18.7344 54.1562 18.6875 53.9844 18.6406C53.8125 18.5938 53.6484 18.5547 53.4922 18.5234C53.3359 18.4766 53.1719 18.4531 53 18.4531C52.7656 18.4531 52.5312 18.4922 52.2969 18.5703C52.0625 18.6484 51.8516 18.7578 51.6641 18.8984C51.4766 19.0391 51.3203 19.2109 51.1953 19.4141C51.0859 19.6172 51.0312 19.8438 51.0312 20.0938C51.0312 20.4688 51.1094 20.8438 51.2656 21.2188C51.4219 21.5781 51.625 21.9453 51.875 22.3203C52.1406 22.6953 52.4375 23.0781 52.7656 23.4688C53.1094 23.8438 53.4688 24.2266 53.8438 24.6172C54.2969 25.1172 54.75 25.625 55.2031 26.1406C55.6719 26.6562 56.0859 27.1953 56.4453 27.7578C56.8203 28.3203 57.125 28.9141 57.3594 29.5391C57.5938 30.1641 57.7109 30.8203 57.7109 31.5078C57.7109 32.1016 57.6094 32.6328 57.4062 33.1016C57.2188 33.5703 56.9453 33.9688 56.5859 34.2969C56.2422 34.625 55.8203 34.875 55.3203 35.0469C54.8359 35.2344 54.3047 35.3281 53.7266 35.3281C53.5703 35.3281 53.3281 35.2969 53 35.2344C52.6875 35.1719 52.3281 35.0859 51.9219 34.9766C51.5156 34.8516 51.0938 34.7188 50.6562 34.5781C50.2344 34.4375 49.8438 34.2891 49.4844 34.1328C49.1406 33.9609 48.8516 33.7969 48.6172 33.6406C48.3984 33.4688 48.2891 33.3125 48.2891 33.1719C48.2891 32.9844 48.375 32.7969 48.5469 32.6094C48.7188 32.4062 48.9219 32.2266 49.1562 32.0703C49.3906 31.8984 49.6328 31.7578 49.8828 31.6484C50.1484 31.5391 50.3672 31.4844 50.5391 31.4844C50.7734 31.4844 51.0156 31.5391 51.2656 31.6484C51.5312 31.7578 51.7969 31.8828 52.0625 32.0234C52.3594 32.1797 52.6562 32.3203 52.9531 32.4453C53.2656 32.5703 53.5859 32.6328 53.9141 32.6328C54.1641 32.6328 54.3047 32.5469 54.3359 32.375C54.3828 32.2031 54.4062 32.0078 54.4062 31.7891C54.4062 31.2422 54.3125 30.7266 54.125 30.2422C53.9375 29.7422 53.6953 29.2578 53.3984 28.7891C53.1016 28.3203 52.7578 27.8672 52.3672 27.4297C51.9766 26.9766 51.5859 26.5312 51.1953 26.0938C50.7891 25.6562 50.3906 25.2188 50 24.7812C49.625 24.3438 49.2891 23.8984 48.9922 23.4453C48.6953 22.9766 48.4531 22.5 48.2656 22.0156C48.0938 21.5312 48.0078 21.0156 48.0078 20.4688C48.0078 19.7969 48.1562 19.1953 48.4531 18.6641C48.75 18.1172 49.1328 17.6484 49.6016 17.2578C50.0859 16.8672 50.625 16.5703 51.2188 16.3672C51.8281 16.1484 52.4375 16.0391 53.0469 16.0391C53.25 16.0391 53.5625 16.0859 53.9844 16.1797C54.4062 16.2578 54.8203 16.375 55.2266 16.5312C55.6328 16.6875 55.9922 16.875 56.3047 17.0938C56.6172 17.3125 56.7734 17.5547 56.7734 17.8203Z" fill="black"/>
<path d="M48.4531 29.1875C48.4531 29.3438 48.4062 29.5312 48.3125 29.75C48.2344 29.9531 48.125 30.1719 47.9844 30.4062C47.8594 30.625 47.7188 30.8516 47.5625 31.0859C47.4062 31.3203 47.2578 31.5312 47.1172 31.7188L46.7656 32.2109L46.4141 32.8203L46.1094 33.3828C46.125 33.6953 46.1484 34.0312 46.1797 34.3906C46.2109 34.75 46.2422 35.0938 46.2734 35.4219C46.4453 37.0312 46.5938 38.6719 46.7188 40.3438C46.8594 42.0156 46.9297 43.6562 46.9297 45.2656C46.9297 46.125 46.8594 46.9922 46.7188 47.8672C46.5781 48.7578 46.3125 49.5547 45.9219 50.2578C45.5469 50.9766 45.0234 51.5625 44.3516 52.0156C43.6797 52.4688 42.8203 52.6953 41.7734 52.6953C41.0547 52.6953 40.4453 52.5625 39.9453 52.2969C39.4453 52.0312 39.0391 51.6719 38.7266 51.2188C38.4297 50.7812 38.2109 50.2656 38.0703 49.6719C37.9297 49.0781 37.8594 48.4609 37.8594 47.8203C37.8594 46.5547 38.0078 45.2734 38.3047 43.9766C38.6016 42.6797 38.9844 41.3984 39.4531 40.1328C39.9375 38.8672 40.4844 37.625 41.0938 36.4062C41.7031 35.2031 42.3203 34.0469 42.9453 32.9375C42.9453 32.9062 42.9453 32.875 42.9453 32.8438C42.9453 32.7969 42.9375 32.7266 42.9219 32.6328C42.7188 33.0078 42.4844 33.3984 42.2188 33.8047C41.9688 34.1953 41.6797 34.5469 41.3516 34.8594C41.0391 35.1719 40.6875 35.4297 40.2969 35.6328C39.9219 35.8359 39.5 35.9375 39.0312 35.9375C38.375 35.9375 37.8281 35.7812 37.3906 35.4688C36.9531 35.1562 36.6016 34.7578 36.3359 34.2734C36.0859 33.7891 35.9062 33.2578 35.7969 32.6797C35.6875 32.1016 35.6328 31.5547 35.6328 31.0391C35.6328 30.4453 35.6641 29.8594 35.7266 29.2812C35.8047 28.7031 35.8906 28.1406 35.9844 27.5938C36.1406 26.7188 36.3359 25.7734 36.5703 24.7578C36.8203 23.7266 37.125 22.7109 37.4844 21.7109C37.8438 20.6953 38.2578 19.7422 38.7266 18.8516C39.2109 17.9609 39.7734 17.2031 40.4141 16.5781L40.6016 16.4141C40.8047 16.2109 41.0391 16.0156 41.3047 15.8281C41.5703 15.625 41.8438 15.5234 42.125 15.5234C42.2969 15.5234 42.4453 15.5703 42.5703 15.6641C42.7109 15.7578 42.8281 15.8828 42.9219 16.0391C43.0156 16.1797 43.0859 16.3359 43.1328 16.5078C43.1953 16.6797 43.2266 16.8438 43.2266 17C43.2266 17.1875 43.1562 17.3906 43.0156 17.6094H43.0625C44.0156 17.6094 44.6562 18.0469 44.9844 18.9219C45.1562 19.0781 45.2812 19.2656 45.3594 19.4844C45.4531 19.7031 45.5 19.9375 45.5 20.1875C45.5 20.3125 45.4922 20.4531 45.4766 20.6094C45.4609 20.75 45.4375 20.8828 45.4062 21.0078C45.375 21.1484 45.3516 21.2812 45.3359 21.4062C45.3203 21.5312 45.3125 21.6484 45.3125 21.7578C45.3125 22.1172 45.3203 22.5625 45.3359 23.0938C45.3516 23.625 45.375 24.1797 45.4062 24.7578C45.4375 25.3359 45.4688 25.9062 45.5 26.4688C45.5469 27.0156 45.5859 27.4922 45.6172 27.8984C45.7266 27.7578 45.8516 27.6328 45.9922 27.5234C46.1484 27.4141 46.3281 27.3594 46.5312 27.3594C46.7031 27.3594 46.8984 27.4219 47.1172 27.5469C47.3516 27.6719 47.5625 27.8281 47.75 28.0156C47.9531 28.2031 48.1172 28.4062 48.2422 28.625C48.3828 28.8281 48.4531 29.0156 48.4531 29.1875ZM42.0078 19.5312C42.0078 19.4375 42.0078 19.3359 42.0078 19.2266C42.0234 19.1172 42.0469 19 42.0781 18.875L41.9141 19.0859C41.7891 19.2266 41.6719 19.3594 41.5625 19.4844C41.4531 19.6094 41.3516 19.7422 41.2578 19.8828C40.8516 20.4766 40.4922 21.25 40.1797 22.2031C39.8828 23.1406 39.6328 24.1328 39.4297 25.1797C39.2266 26.2109 39.0703 27.2266 38.9609 28.2266C38.8672 29.2266 38.8203 30.0859 38.8203 30.8047C38.8203 31.1641 38.8281 31.5234 38.8438 31.8828C38.8594 32.2422 38.9375 32.5938 39.0781 32.9375C39.2969 32.7031 39.4766 32.4531 39.6172 32.1875C39.7578 31.9062 39.8906 31.6172 40.0156 31.3203C40.3594 30.5547 40.6562 29.6641 40.9062 28.6484C41.1562 27.6328 41.3594 26.5859 41.5156 25.5078C41.6719 24.4297 41.7891 23.375 41.8672 22.3438C41.9453 21.2969 41.9922 20.3594 42.0078 19.5312ZM43.7891 44.5625C43.7891 43.5 43.7656 42.5 43.7188 41.5625C43.6719 40.6406 43.6016 39.6484 43.5078 38.5859C43.2266 39.2578 42.9375 39.9766 42.6406 40.7422C42.3594 41.5234 42.1094 42.3047 41.8906 43.0859C41.6719 43.8828 41.4922 44.6719 41.3516 45.4531C41.2109 46.2344 41.1406 46.9766 41.1406 47.6797V47.8438C41.1406 48.2031 41.1641 48.5859 41.2109 48.9922C41.2578 49.4141 41.4062 49.7578 41.6562 50.0234H41.9141C42.2266 50.0234 42.4844 49.9141 42.6875 49.6953C42.9062 49.4922 43.0859 49.2266 43.2266 48.8984C43.3672 48.5703 43.4766 48.2031 43.5547 47.7969C43.6328 47.3906 43.6875 46.9844 43.7188 46.5781C43.75 46.1719 43.7656 45.7891 43.7656 45.4297C43.7812 45.0703 43.7891 44.7812 43.7891 44.5625Z" fill="black"/>
<path d="M34.8125 25.3906C34.8125 26.75 34.6953 28.1094 34.4609 29.4688C34.2422 30.8125 33.7812 32.0859 33.0781 33.2891C32.8594 33.6484 32.6094 34 32.3281 34.3438C32.0469 34.6719 31.7344 34.9688 31.3906 35.2344C31.0625 35.5156 30.6953 35.7344 30.2891 35.8906C29.8984 36.0625 29.4844 36.1484 29.0469 36.1484C28.3594 36.1484 27.7578 35.9844 27.2422 35.6562C26.7422 35.3438 26.3047 34.9297 25.9297 34.4141C25.5703 33.8828 25.2656 33.2891 25.0156 32.6328C24.7812 31.9609 24.5938 31.2812 24.4531 30.5938C24.3281 29.8906 24.2344 29.2109 24.1719 28.5547C24.125 27.8984 24.1016 27.3203 24.1016 26.8203C24.1016 26.2578 24.125 25.6406 24.1719 24.9688C24.2188 24.2969 24.2969 23.6094 24.4062 22.9062C24.5312 22.2031 24.6875 21.5078 24.875 20.8203C25.0781 20.1328 25.3359 19.4922 25.6484 18.8984C25.9609 18.2891 26.3359 17.75 26.7734 17.2812C27.2109 16.7969 27.7188 16.4141 28.2969 16.1328V16.1562C28.7969 15.8906 29.2969 15.7578 29.7969 15.7578C30.1094 15.7578 30.3516 15.8281 30.5234 15.9688C30.6953 16.0938 30.7734 16.3125 30.7578 16.625C31.6172 16.7812 32.3125 17.1953 32.8438 17.8672C33.375 18.5391 33.7812 19.3203 34.0625 20.2109C34.3594 21.1016 34.5547 22.0156 34.6484 22.9531C34.7578 23.8906 34.8125 24.7031 34.8125 25.3906ZM29.5156 19.5312C29.25 19.5312 29 19.4297 28.7656 19.2266C28.4688 19.6797 28.2188 20.2031 28.0156 20.7969C27.8125 21.375 27.6484 21.9766 27.5234 22.6016C27.4141 23.2109 27.3359 23.8281 27.2891 24.4531C27.2422 25.0781 27.2188 25.6641 27.2188 26.2109C27.2188 26.6641 27.2422 27.25 27.2891 27.9688C27.3359 28.6719 27.4219 29.3828 27.5469 30.1016C27.6875 30.8203 27.875 31.4922 28.1094 32.1172C28.3594 32.7422 28.6797 33.2031 29.0703 33.5C29.5547 33.2188 29.9531 32.7734 30.2656 32.1641C30.5938 31.5391 30.8516 30.8594 31.0391 30.125C31.2266 29.3906 31.3516 28.6484 31.4141 27.8984C31.4922 27.1484 31.5312 26.5078 31.5312 25.9766C31.5312 25.5859 31.5078 25.0781 31.4609 24.4531C31.4141 23.8281 31.3359 23.1953 31.2266 22.5547C31.1172 21.8984 30.9609 21.2891 30.7578 20.7266C30.5703 20.1641 30.3281 19.7422 30.0312 19.4609C29.8906 19.5078 29.7188 19.5312 29.5156 19.5312Z" fill="black"/>
<path d="M23.9609 35.6797C23.9609 35.8984 23.9062 36.0781 23.7969 36.2188C23.6875 36.3594 23.5469 36.4688 23.375 36.5469C23.2188 36.6406 23.0391 36.7031 22.8359 36.7344C22.6484 36.7812 22.4766 36.8047 22.3203 36.8047C21.7734 36.8047 21.2969 36.6484 20.8906 36.3359C20.4844 36.0234 20.1328 35.6172 19.8359 35.1172C19.5391 34.6328 19.2969 34.0781 19.1094 33.4531C18.9219 32.8125 18.7656 32.1797 18.6406 31.5547C18.5156 30.9141 18.4219 30.3047 18.3594 29.7266C18.2969 29.1328 18.25 28.625 18.2188 28.2031C18.0781 26.75 17.9766 25.2734 17.9141 23.7734C17.8672 22.2734 17.8438 20.7891 17.8438 19.3203C17.8438 15.3047 17.9844 11.3281 18.2656 7.39062C18.2656 7.32812 18.2656 7.25781 18.2656 7.17969C18.2812 7.10156 18.2891 7.02344 18.2891 6.94531C18.3047 6.61719 18.3203 6.24219 18.3359 5.82031C18.3516 5.38281 18.375 4.95312 18.4062 4.53125C18.4375 4.10938 18.4688 3.72656 18.5 3.38281C18.5469 3.02344 18.6016 2.77344 18.6641 2.63281V2.65625C18.7266 2.4375 18.8125 2.27344 18.9219 2.16406C19.0312 2.05469 19.2188 2 19.4844 2C20.0469 2 20.5234 2.1875 20.9141 2.5625C21.3047 2.9375 21.5 3.40625 21.5 3.96875C21.5 4.09375 21.4922 4.21875 21.4766 4.34375C21.4766 4.45312 21.4688 4.5625 21.4531 4.67188C21.4375 4.78125 21.4219 4.89062 21.4062 5C21.4062 5.09375 21.4062 5.17969 21.4062 5.25781C21.3594 5.86719 21.3203 6.47656 21.2891 7.08594C21.2734 7.67969 21.25 8.28125 21.2188 8.89062C21.1406 10.2344 21.0781 11.5781 21.0312 12.9219C21 14.25 20.9844 15.5938 20.9844 16.9531C20.9844 17.5312 20.9922 18.2891 21.0078 19.2266C21.0234 20.1641 21.0547 21.1875 21.1016 22.2969C21.1484 23.3906 21.2109 24.5234 21.2891 25.6953C21.3828 26.8672 21.5 27.9844 21.6406 29.0469C21.7812 30.1094 21.9453 31.0703 22.1328 31.9297C22.3359 32.7891 22.5703 33.4531 22.8359 33.9219C22.9766 33.9844 23.1094 34.0859 23.2344 34.2266C23.375 34.3516 23.4922 34.5 23.5859 34.6719C23.6953 34.8281 23.7812 34.9922 23.8438 35.1641C23.9219 35.3516 23.9609 35.5234 23.9609 35.6797Z" fill="black"/>
<path d="M16.625 25.8125C16.625 27.6406 16.3281 29.2344 15.7344 30.5938C15.1562 31.9531 14.3438 33.0859 13.2969 33.9922C12.25 34.8984 11 35.5703 9.54688 36.0078C8.10938 36.4609 6.53125 36.6875 4.8125 36.6875H4.01562C3.85938 36.6875 3.625 36.6797 3.3125 36.6641C3 36.6641 2.67969 36.6328 2.35156 36.5703C2.03906 36.5234 1.75781 36.4375 1.50781 36.3125C1.27344 36.1875 1.15625 36.0156 1.15625 35.7969C1.15625 35.5469 1.21094 35.2969 1.32031 35.0469C1.44531 34.8125 1.60156 34.6016 1.78906 34.4141C1.97656 34.2109 2.1875 34.0469 2.42188 33.9219C2.65625 33.7812 2.89062 33.6875 3.125 33.6406C3 33.4844 2.90625 33.2734 2.84375 33.0078C2.78125 32.7422 2.72656 32.4609 2.67969 32.1641C2.63281 31.8672 2.59375 31.5781 2.5625 31.2969C2.54688 31 2.53125 30.75 2.51562 30.5469C2.23438 28.125 1.99219 25.7109 1.78906 23.3047C1.58594 20.8984 1.48438 18.4688 1.48438 16.0156C1.48438 14.4531 1.50781 12.9062 1.55469 11.375C1.60156 9.84375 1.64062 8.29688 1.67188 6.73438C1.70312 6.09375 1.71094 5.46094 1.69531 4.83594C1.69531 4.21094 1.71875 3.57812 1.76562 2.9375C1.67188 2.96875 1.57031 2.98438 1.46094 2.98438C1.35156 2.98438 1.23438 2.98438 1.10938 2.98438C0.875 2.98438 0.640625 2.94531 0.40625 2.86719C0.1875 2.77344 0.078125 2.5625 0.078125 2.23438C0.078125 1.82812 0.164062 1.5 0.335938 1.25C0.507812 1 0.726562 0.8125 0.992188 0.6875C1.25781 0.546875 1.55469 0.460938 1.88281 0.429688C2.22656 0.382812 2.5625 0.359375 2.89062 0.359375C4.39062 0.359375 5.84375 0.546875 7.25 0.921875C8.65625 1.29688 9.89844 1.875 10.9766 2.65625C12.0547 3.4375 12.9219 4.4375 13.5781 5.65625C14.2344 6.85938 14.5625 8.29688 14.5625 9.96875C14.5625 11.3438 14.3125 12.6562 13.8125 13.9062C13.3125 15.1562 12.5781 16.2656 11.6094 17.2344C12.4844 17.6094 13.2344 18.1016 13.8594 18.7109C14.5 19.3047 15.0234 19.9766 15.4297 20.7266C15.8359 21.4766 16.1328 22.2891 16.3203 23.1641C16.5234 24.0234 16.625 24.9062 16.625 25.8125ZM11 9.64062C11 8.70312 10.8516 7.875 10.5547 7.15625C10.2578 6.42188 9.84375 5.78906 9.3125 5.25781C8.78125 4.71094 8.14844 4.27344 7.41406 3.94531C6.67969 3.60156 5.875 3.34375 5 3.17188C5.03125 3.25 5.04688 3.32031 5.04688 3.38281C5.04688 3.44531 5.04688 3.5 5.04688 3.54688C5.04688 5.03125 5.03125 6.5 5 7.95312C4.96875 9.39062 4.95312 10.8438 4.95312 12.3125V14.75C4.95312 15.0625 4.96094 15.3828 4.97656 15.7109C4.99219 16.0234 5 16.3438 5 16.6719C5.40625 16.5 5.8125 16.4141 6.21875 16.4141C6.64062 16.3984 7.0625 16.3906 7.48438 16.3906C8.65625 15.6562 9.53125 14.6953 10.1094 13.5078C10.7031 12.3047 11 11.0156 11 9.64062ZM13.1094 25.7656C13.1094 25.0156 13.0391 24.2891 12.8984 23.5859C12.7734 22.8828 12.5469 22.2422 12.2188 21.6641C11.8906 21.0703 11.4609 20.5625 10.9297 20.1406C10.3984 19.7188 9.73438 19.4062 8.9375 19.2031C7.75 19.875 6.48438 20.3281 5.14062 20.5625C5.26562 22.3281 5.41406 24.0938 5.58594 25.8594C5.77344 27.6094 6.03125 29.3594 6.35938 31.1094C6.4375 31.5156 6.52344 31.9219 6.61719 32.3281C6.72656 32.7188 6.79688 33.125 6.82812 33.5469C7.875 33.4062 8.78906 33.1172 9.57031 32.6797C10.3672 32.2266 11.0234 31.6641 11.5391 30.9922C12.0703 30.3047 12.4609 29.5156 12.7109 28.625C12.9766 27.7344 13.1094 26.7812 13.1094 25.7656Z" fill="black"/>
</svg>
